HIERARCHY
ROOT Hips
{
	OFFSET -21.947001 39.810204 44.525997
	CHANNELS 6 Xposition Yposition Zposition Zrotation Xrotation Yrotation
	JOINT Chest
	{
		OFFSET -0.201599 0.334099 6.453201
		CHANNELS 6 Xposition Yposition Zposition Zrotation Xrotation Yrotation
		JOINT Chest2
		{
			OFFSET 0.000000 0.000000 3.568001
			CHANNELS 6 Xposition Yposition Zposition Zrotation Xrotation Yrotation
			JOINT Neck
			{
				OFFSET 0.000000 0.000000 8.296402
				CHANNELS 6 Xposition Yposition Zposition Zrotation Xrotation Yrotation
				JOINT Head
				{
					OFFSET 0.000000 0.000000 2.173901
					CHANNELS 6 Xposition Yposition Zposition Zrotation Xrotation Yrotation
					End Site
					{
						OFFSET 0.000000 0.000000 7.891998
					}
				}
			}
			JOINT LeftCollar
			{
				OFFSET 1.927601 0.221401 6.049000
				CHANNELS 6 Xposition Yposition Zposition Zrotation Xrotation Yrotation
				JOINT LeftShoulder
				{
					OFFSET 4.959700 0.000000 0.000000
					CHANNELS 6 Xposition Yposition Zposition Zrotation Xrotation Yrotation
					JOINT LeftElbow
					{
						OFFSET 0.000000 0.000000 -8.654202
						CHANNELS 6 Xposition Yposition Zposition Zrotation Xrotation Yrotation
						JOINT LeftWrist
						{
							OFFSET 0.000000 0.000000 -13.864101
							CHANNELS 6 Xposition Yposition Zposition Zrotation Xrotation Yrotation
							End Site
							{
								OFFSET 0.000000 0.000000 -2.173901
							}
						}
					}
				}
			}
			JOINT RightCollar
			{
				OFFSET -3.155701 -0.764999 6.687801
				CHANNELS 6 Xposition Yposition Zposition Zrotation Xrotation Yrotation
				JOINT RightShoulder
				{
					OFFSET -3.592899 0.000000 0.000000
					CHANNELS 6 Xposition Yposition Zposition Zrotation Xrotation Yrotation
					JOINT RightElbow
					{
						OFFSET 0.000000 0.000000 -10.352398
						CHANNELS 6 Xposition Yposition Zposition Zrotation Xrotation Yrotation
						JOINT RightWrist
						{
							OFFSET 0.000000 0.000000 -12.750301
							CHANNELS 6 Xposition Yposition Zposition Zrotation Xrotation Yrotation
							End Site
							{
								OFFSET 0.000000 0.000000 -2.173901
							}
						}
					}
				}
			}
		}
	}
	JOINT LeftHip
	{
		OFFSET 2.460600 -0.518101 -2.735500
		CHANNELS 6 Xposition Yposition Zposition Zrotation Xrotation Yrotation
		JOINT LeftKnee
		{
			OFFSET 0.000000 -0.000004 -17.005899
			CHANNELS 6 Xposition Yposition Zposition Zrotation Xrotation Yrotation
			JOINT LeftAnkle
			{
				OFFSET 0.000000 0.000000 -19.194401
				CHANNELS 6 Xposition Yposition Zposition Zrotation Xrotation Yrotation
				End Site
				{
					OFFSET 0.000000 -8.134600 0.000000
				}
			}
		}
	}
	JOINT RightHip
	{
		OFFSET -3.115499 -0.679600 -2.320301
		CHANNELS 6 Xposition Yposition Zposition Zrotation Xrotation Yrotation
		JOINT RightKnee
		{
			OFFSET 0.000000 -0.000004 -17.680401
			CHANNELS 6 Xposition Yposition Zposition Zrotation Xrotation Yrotation
			JOINT RightAnkle
			{
				OFFSET 0.000000 0.000000 -16.993797
				CHANNELS 6 Xposition Yposition Zposition Zrotation Xrotation Yrotation
				End Site
				{
					OFFSET 0.000000 -8.842300 0.000000
				}
			}
		}
	}
}
MOTION
Frames: 5
Frame Time: 0.041667
-15.452099 20.908607 44.839996 2516.275568 4.140249 0.254735 -0.201598 0.334103 6.453209 2.559955 0.946005 5.382829 0.000000 -0.000002 3.567989 -9.520546 -3.106140 -2.513822 -0.000001 -0.000002 8.296393 187.850256 -177.165791 172.725567 -0.000001 0.000001 2.173897 2.932229 0.022573 1.873698 1.927602 0.221406 6.048992 -20.606804 3.101577 4.111730 4.959702 -0.000001 0.000004 159.948523 192.488842 115.782307 0.000003 0.000001 -8.654192 35.006092 -62.586225 54.848799 0.000003 -0.000004 -13.864096 4075.668517 -151.036561 112.198165 -3.155701 -0.764999 6.687799 30.164578 -2.724196 2.377353 -3.592890 0.000001 0.000012 -165.432974 190.233254 339.133290 -0.000004 0.000000 -10.352388 -376.734110 -36.208814 -348.783801 0.000001 -0.000005 -12.750297 -96.161188 159.816864 -175.817662 2.460600 -0.518098 -2.735498 -15.205604 3.965593 -0.188793 -0.000009 -0.000003 -17.005896 -145.507905 179.833130 -166.930616 -0.000003 0.000003 -19.194403 538.326988 148.747587 170.877522 -3.115494 -0.679590 -2.320299 -27.422873 -33.328560 -15.203400 -0.000002 -0.000004 -17.680401 -779.617736 166.091636 -238.242135 -0.000002 0.000001 -16.993793 1035.983095 46.909268 -427.054245
-15.432199 20.920607 44.834694 2516.196447 4.079625 0.205585 -0.201599 0.334097 6.453205 2.637611 1.039642 5.437223 0.000004 0.000003 3.568000 -9.538482 -3.093569 -2.513652 0.000001 -0.000004 8.296402 187.860159 -177.127132 172.712494 -0.000001 0.000001 2.173896 2.966359 -0.027874 1.665472 1.927603 0.221401 6.049005 -20.687747 3.108832 3.981432 4.959702 0.000000 0.000004 160.075906 192.528799 115.857903 -0.000004 -0.000009 -8.654192 34.989987 -62.587311 54.854117 0.000000 0.000004 -13.864099 4075.419789 -150.487659 112.735332 -3.155701 -0.765003 6.687804 30.117193 -2.760707 2.438870 -3.592892 -0.000000 0.000004 -165.191062 190.342810 339.100260 -0.000007 -0.000004 -10.352398 -376.040108 -36.235171 -348.532723 -0.000000 -0.000000 -12.750299 -96.452885 159.695779 -176.301362 2.460600 -0.518100 -2.735497 -15.311631 4.026595 -0.096096 -0.000003 -0.000003 -17.005899 -145.505364 179.899041 -166.909442 0.000000 0.000007 -19.194399 538.507141 148.759990 170.846718 -3.115495 -0.679595 -2.320296 -27.375458 -33.311000 -15.175427 -0.000007 -0.000001 -17.680399 -779.496924 166.085612 -238.269619 0.000000 -0.000006 -16.993792 1035.906159 46.905716 -426.949934
-15.414198 20.929602 44.830997 2516.141587 3.960630 0.195753 -0.201595 0.334095 6.453202 2.689235 1.208165 5.462500 -0.000001 0.000002 3.567991 -9.572052 -3.092331 -2.519549 0.000000 -0.000002 8.296395 187.883327 -177.073979 172.683670 -0.000001 0.000003 2.173904 2.957266 -0.092947 1.642276 1.927601 0.221406 6.048998 -20.701914 3.092209 3.913129 4.959699 -0.000001 0.000004 160.145410 192.432630 115.771829 -0.000005 -0.000000 -8.654204 35.246133 -62.624843 55.269327 0.000001 0.000002 -13.864098 4075.248870 -150.931908 112.152232 -3.155703 -0.765000 6.687802 30.066848 -2.807951 2.381557 -3.592893 0.000000 0.000013 -165.625995 190.146169 338.996741 -0.000002 -0.000001 -10.352390 -376.245232 -36.254719 -348.320031 -0.000004 -0.000004 -12.750305 -96.458944 159.727375 -176.558792 2.460604 -0.518098 -2.735505 -15.406535 4.153962 -0.021156 -0.000003 0.000002 -17.005901 -145.434344 179.943574 -166.888528 -0.000002 0.000003 -19.194401 538.586644 148.771342 170.809371 -3.115496 -0.679600 -2.320305 -27.341218 -33.256386 -15.124692 -0.000001 -0.000001 -17.680401 -779.314476 166.282144 -238.339506 0.000001 -0.000004 -16.993790 1035.614046 46.856474 -426.875157
-15.396997 20.935707 44.828293 2516.082137 3.845516 0.173344 -0.201599 0.334103 6.453205 2.742000 1.380772 5.513435 0.000001 0.000000 3.567997 -9.606292 -3.100930 -2.527736 0.000005 -0.000002 8.296404 187.911140 -177.025184 172.648044 -0.000001 -0.000002 2.173902 2.933334 -0.109808 1.729376 1.927599 0.221399 6.048999 -20.740665 3.097910 3.802365 4.959698 -0.000004 0.000007 160.279309 192.508021 115.794779 -0.000002 -0.000006 -8.654202 35.259807 -62.693705 55.384399 0.000002 -0.000000 -13.864094 4075.214774 -150.644999 112.407135 -3.155706 -0.765000 6.687804 29.990230 -2.856730 2.247884 -3.592896 0.000000 0.000006 -165.337925 190.200974 339.122936 -0.000001 -0.000005 -10.352391 -375.779987 -36.256253 -348.185313 -0.000000 -0.000005 -12.750310 -96.553303 159.760720 -176.669127 2.460600 -0.518090 -2.735502 -15.486580 4.271350 0.040747 -0.000005 -0.000007 -17.005903 -145.245462 179.951196 -166.834228 -0.000002 0.000003 -19.194399 538.538396 148.753460 170.764373 -3.115496 -0.679591 -2.320301 -27.194593 -33.207338 -15.029642 -0.000000 0.000004 -17.680399 -779.233606 166.397451 -238.414856 0.000003 -0.000001 -16.993795 1035.361930 46.817231 -426.613752
-15.379696 20.944407 44.825096 2516.036675 3.762271 0.143557 -0.201597 0.334104 6.453204 2.779606 1.508423 5.577235 -0.000001 0.000005 3.567997 -9.635577 -3.114231 -2.535506 0.000002 0.000000 8.296406 187.934294 -177.005937 172.606353 0.000000 0.000001 2.173904 3.007441 -0.121583 1.893975 1.927599 0.221404 6.049004 -20.819323 3.133391 3.694459 4.959701 -0.000004 0.000002 160.487124 192.550150 115.750997 -0.000006 -0.000007 -8.654200 35.172001 -62.817933 55.605338 -0.000001 0.000006 -13.864096 4075.342416 -151.087814 112.134371 -3.155703 -0.765002 6.687798 29.705015 -2.879634 2.232402 -3.592894 0.000004 0.000005 -165.099264 189.969964 339.117472 -0.000004 -0.000004 -10.352384 -375.672753 -36.066274 -348.114361 0.000000 -0.000002 -12.750303 -96.270362 159.720723 -177.316506 2.460603 -0.518099 -2.735494 -15.560863 4.345265 0.095200 -0.000006 -0.000004 -17.005899 -145.047892 179.936635 -166.776663 -0.000001 0.000004 -19.194399 538.459220 148.743215 170.706795 -3.115497 -0.679588 -2.320303 -27.134617 -33.173310 -15.002079 -0.000004 -0.000007 -17.680399 -779.044164 166.486626 -238.576486 0.000001 -0.000002 -16.993793 1034.946873 46.541694 -426.375542
